HIERARCHY
ROOT ui
{
	 OFFSET 0 0 0
	 CHANNELS 3 XPosition YPosition Z Position
	 EndSite
	 {
	 OFFSET 0 -1 0
	 }
}
ROOT li
{
	 OFFSET 0 0 0
	 CHANNELS 3 XPosition YPosition Z Position
	 EndSite
	 {
	 OFFSET 0 -1 0
	 }
}
ROOT ul
{
	 OFFSET 0 0 0
	 CHANNELS 3 XPosition YPosition Z Position
	 EndSite
	 {
	 OFFSET 0 -1 0
	 }
}
ROOT ll
{
	 OFFSET 0 0 0
	 CHANNELS 3 XPosition YPosition Z Position
	 EndSite
	 {
	 OFFSET 0 -1 0
	 }
}
ROOT tt
{
	 OFFSET 0 0 0
	 CHANNELS 3 XPosition YPosition Z Position
	 EndSite
	 {
	 OFFSET 0 -1 0
	 }
}
ROOT tb
{
	 OFFSET 0 0 0
	 CHANNELS 3 XPosition YPosition Z Position
	 EndSite
	 {
	 OFFSET 0 -1 0
	 }
}
ROOT td
{
	 OFFSET 0 0 0
	 CHANNELS 3 XPosition YPosition Z Position
	 EndSite
	 {
	 OFFSET 0 -1 0
	 }
}
ROOT v
{
	 OFFSET 0 0 0
	 CHANNELS 3 XPosition YPosition Z Position
	 EndSite
	 {
	 OFFSET 0 -1 0
	 }
}
ROOT bn
{
	 OFFSET 0 0 0
	 CHANNELS 3 XPosition YPosition Z Position
	 EndSite
	 {
	 OFFSET 0 -1 0
	 }
}
MOTION
Frames: 29
Frame Time: 0.002
0.04044611358642578	0.001700582981109619	0		0.592011474609375	-2.524395263671875	0		-0.9936060180664062	0.13525636291503906	0		-0.6420797729492187	-2.532382080078125	0		2.85560302734375	-0.39787060546875	0		4.306009765625	-0.34746234130859377	0		5.4743349609375	-0.31952978515625	0		6.003734375	0.43015902709960935	0		-0.1753905029296875	5.9124345703125	0		
-0.004839181900024414	0.012557558059692383	0		0.5866011352539062	-2.52983154296875	0		-0.926967041015625	0.1352981719970703	0		-0.578689208984375	-2.565318603515625	0		2.852993896484375	-0.43133447265625	0		4.2697744140625	-0.3296831665039063	0		5.45199755859375	-0.315855224609375	0		5.99831787109375	0.4227076416015625	0		-0.17573361206054688	5.9129638671875	0		
-0.003309997081756592	-0.002911133050918579	0		0.6181221313476563	-2.545521240234375	0		-1.00928173828125	0.14144557189941406	0		-0.6132835083007813	-2.59652197265625	0		2.77053125	-0.445197509765625	0		4.2454423828125	-0.3259747619628906	0		5.42778271484375	-0.2961500854492187	0		5.99796533203125	0.4232357177734375	0		-0.17606298828125	5.914509765625	0		
-0.003660839080810547	-0.0023506379127502443	0		0.5907860717773438	-2.541765380859375	0		-0.9336341552734375	0.14145346069335937	0		-0.5798261108398437	-2.62120751953125	0		2.741865478515625	-0.4874397277832031	0		4.2172666015625	-0.30122335815429685	0		5.40949755859375	-0.28647442626953123	0		6.00672509765625	0.43871136474609373	0		-0.17640277099609375	5.91407080078125	0		
-0.004011087894439698	-0.0017774250507354736	0		0.5733839111328125	-2.547069580078125	0		-0.999989501953125	0.14151264953613282	0		-0.6073746337890625	-2.64643408203125	0		2.73030908203125	-0.5147944946289063	0		4.18487939453125	-0.3054300231933594	0		5.39134521484375	-0.2587877197265625	0		6.0023251953125	0.43229391479492185	0		-0.17673321533203126	5.91464453125	0		
0.0036886711120605467	0.005747713088989258	0		0.6539627685546875	-2.555080322265625	0		-0.9303054809570312	0.14658761596679687	0		-0.51389892578125	-2.66853564453125	0		2.681810791015625	-0.5338685302734375	0		4.185724609375	-0.2778692016601563	0		5.36900146484375	-0.25706146240234373	0		6.00997509765625	0.4327976989746094	0		-0.1770632781982422	5.91522900390625	0		
-0.004715725898742675	-6.010439991950988E-4	0		0.595608642578125	-2.553065673828125	0		-1.0066563110351563	0.1477401580810547	0		-0.490643798828125	-2.720115478515625	0		2.63922216796875	-0.564977783203125	0		4.13337158203125	-0.2769117431640625	0		5.351845703125	-0.22936473083496095	0		6.00556494140625	0.4253970031738281	0		-0.17739430236816406	5.915822265625	0		
-0.005071982860565185	-2.319999970495701E-6	0		0.6451678466796875	-2.56283544921875	0		-0.9310140380859375	0.14778591918945314	0		-0.4662530517578125	-2.752697265625	0		2.60065966796875	-0.592110107421875	0		4.10217626953125	-0.2541025085449219	0		5.3226806640625	-0.20257423400878907	0		6.00926904296875	0.43394290161132815	0		-0.17772761535644532	5.91642138671875	0		
-4.6074599027633666E-4	-0.0034365389347076414	0		0.5987633056640626	-2.566898193359375	0		-1.0073707275390624	0.14894895935058594	0		-0.49684942626953127	-2.782872314453125	0		2.587071044921875	-0.6224216918945312	0		4.05173681640625	-0.264149169921875	0		5.2972705078125	-0.2088081817626953	0		6.0089111328125	0.43452206420898437	0		-0.176086181640625	5.914009765625	0		
-8.225240111351013E-4	-0.0028330419063568113	0		0.6273839721679687	-2.567509521484375	0		-1.0037026977539063	0.1535266876220703	0		-0.4864343566894531	-2.811346923828125	0		2.513481689453125	-0.6522914428710938	0		4.03667529296875	-0.22245158386230468	0		5.2692099609375	-0.1670190887451172	0		6.01754345703125	0.43403759765625	0		-0.1603533935546875	5.92449658203125	0		
0.009887242317199707	0.007688636779785156	0		0.6020494995117187	-2.5617255859375	0		-0.9180164184570313	0.16050144958496093	0		-0.4570132751464844	-2.8389619140625	0		2.500896484375	-0.6816082763671875	0		3.96626171875	-0.2283485107421875	0		5.25997119140625	-0.14936769104003905	0		6.008189453125	0.43568624877929685	0		-0.17776258850097656	5.916224609375	0		
-0.0015501790046691894	-0.001630547046661377	0		0.6495884399414062	-2.5734794921875	0		-0.9433943481445313	0.15928749084472657	0		-0.46862039184570314	-2.870279296875	0		2.4473701171875	-0.7026259765625	0		3.925993408203125	-0.21446682739257814	0		5.21873291015625	-0.13148191833496095	0		6.007826171875	0.436268798828125	0		-0.17810989379882813	5.9168251953125	0		
-0.0019157780408859252	-0.0010359189510345459	0		0.6182030029296876	-2.57465869140625	0		-0.9377964477539062	0.15484039306640626	0		-0.38220062255859377	-2.898321533203125	0		2.437812255859375	-0.7279702758789063	0		3.891664794921875	-0.20863182067871094	0		5.181537109375	-0.10762791442871093	0		6.00746142578125	0.43684942626953127	0		-0.1774690704345703	5.91641259765625	0		
-0.00531242322921753	-0.004426874160766601	0		0.6616759643554687	-2.5953955078125	0		-0.9381635131835937	0.15542886352539062	0		-0.4477913818359375	-2.927255859375	0		2.351181640625	-0.7627548217773438	0		3.8354970703125	-0.18064083862304686	0		5.1543251953125	-0.08585158538818359	0		6.003146484375	0.44445550537109374	0		-0.17782655334472655	5.917	0		
-0.0026522159576416017	1.279969960451126E-4	0		0.609357421875	-2.587437255859375	0		-0.93946630859375	0.16501377868652345	0		-0.3783485107421875	-2.95219189453125	0		2.32362890625	-0.7869808349609375	0		3.816084228515625	-0.18592739868164063	0		5.12711083984375	-0.06408106994628907	0		6.01178466796875	0.4459612121582031	0		-0.17819056701660158	5.9175771484375	0		
9.996780157089232E-4	0.003663928985595703	0		0.662949462890625	-2.592268310546875	0		-0.935814453125	0.16854962158203124	0		-0.42479046630859374	-2.96128857421875	0		2.275061767578125	-0.8130619506835938	0		3.7599140625	-0.1579510498046875	0		5.091013671875	-0.026251792907714844	0		6.01535595703125	0.43849798583984373	0		-0.14352536010742187	5.92288525390625	0		
-0.003391824960708618	0.0012454739809036254	0		0.658546142578125	-2.59668603515625	0		-0.9452353515625	0.16216696166992187	0		-0.34945260620117186	-3.0012939453125	0		2.248407470703125	-0.8513153076171875	0		3.715523681640625	-0.16007156372070314	0		5.069732421875	-0.013540374755859374	0		6.014103515625	0.45506365966796875	0		-0.17893727111816407	5.9186943359375	0		
0.0012039660215377808	-0.003254333972930908	0		0.6551548461914063	-2.600125732421875	0		-0.9565366821289063	0.1717823028564453	0		-0.3639234924316406	-3.01565478515625	0		2.220866455078125	-0.8745750122070313	0		3.670231201171875	-0.14919696044921876	0		5.036556640625	0.013248077392578125	0		6.01867626953125	0.4475763854980469	0		-0.17931687927246093	5.91923095703125	0		
-0.007151531219482422	-0.001676300048828125	0		0.6547993774414063	-2.5996044921875	0		-0.9459666137695313	0.1632183837890625	0		-0.3195212097167969	-3.0484658203125	0		2.171272216796875	-0.905688720703125	0		3.625847900390625	-0.15134396362304686	0		4.994421875	0.04508885192871094	0		6.01831201171875	0.4481131896972656	0		-0.17771185302734374	5.91773486328125	0		
4.8477599024772643E-4	-0.0022348840236663817	0		0.6294898681640625	-2.593918701171875	0		-0.937272216796875	0.17064888000488282	0		-0.33600540161132814	-3.066848876953125	0		2.134715087890625	-0.932916015625	0		3.596705810546875	-0.12161893463134765	0		4.95329345703125	0.07690605163574218	0		6.0220126953125	0.4566052551269531	0		-0.16201625061035158	5.92811669921875	0		
0.004167932987213135	0.0022151780128479	0		0.657146240234375	-2.59464208984375	0		-0.94854541015625	0.18120494079589844	0		-0.2964720458984375	-3.08466357421875	0		2.123211669921875	-0.9543466186523437	0		3.526354736328125	-0.121611572265625	0		4.9062265625	0.11574844360351562	0		6.0176064453125	0.4491387939453125	0		-0.1794519500732422	5.91972021484375	0		
-0.005157129764556885	0.0037388100624084473	0		0.651781005859375	-2.600144775390625	0		-0.9579371337890625	0.17372471618652344	0		-0.31780545043945313	-3.08605322265625	0		2.07567919921875	-0.9815346069335937	0		3.47605322265625	-0.11677242279052734	0		4.8920615234375	0.139328369140625	0		6.017271484375	0.4496224365234375	0		-0.19389764404296875	5.9082802734375	0		
-0.003531519889831543	-0.0038411591053009032	0		0.64743994140625	-2.604677978515625	0		-0.958253662109375	0.17415505981445312	0		-0.18536042785644533	-3.12059326171875	0		2.050214599609375	-1.0019075317382813	0		3.437804931640625	-0.10704490661621094	0		4.813958984375	0.169353515625	0		6.0120126953125	0.4581192626953125	0		-0.19423887634277343	5.9087138671875	0		
-0.0038264191150665285	-0.0034314711093902587	0		0.6181639404296875	-2.603053466796875	0		-0.95854931640625	0.174560791015625	0		-0.3136609191894531	-3.122247314453125	0		2.00276416015625	-1.023144775390625	0		3.417628173828125	-0.09047496795654297	0		4.77786865234375	0.19804513549804686	0		6.0207158203125	0.45848809814453123	0		-0.17947824096679688	5.9200126953125	0		
0.01793265724182129	7.911249995231628E-4	0		0.646896484375	-2.60387939453125	0		-0.9537904663085938	0.17890399169921875	0		-0.31794744873046876	-3.125835693359375	0		1.960294921875	-1.0504453125	0		3.352375244140625	-0.08760250854492188	0		4.72989892578125	0.2397967529296875	0		6.0165029296875	0.46692437744140625	0		-0.17877838134765625	5.91938818359375	0		
-0.0013144069910049439	2.868959903717041E-4	0		0.6196882934570312	-2.600322998046875	0		-0.950002197265625	0.18322793579101562	0		-0.16744358825683595	-3.1625830078125	0		1.957846435546875	-1.0790660400390626	0		3.34825244140625	-0.07120475006103516	0		4.70886962890625	0.26932272338867186	0		6.0282021484375	0.45921548461914063	0		-0.17904014587402345	5.91974462890625	0		
0.025476295471191405	4.188080132007599E-4	0		0.6434365234375	-2.6071669921875	0		-0.9642329711914063	0.18065643310546875	0		-0.17671456909179686	-3.172188232421875	0		1.901504150390625	-1.097320556640625	0		3.289060302734375	-0.06843335723876953	0		4.67091650390625	0.304943603515625	0		6.02405810546875	0.46859356689453124	0		-0.19534089660644532	5.9101904296875	0		
-0.009692404747009277	0.0019755059480667113	0		0.641252685546875	-2.608849365234375	0		-0.964410400390625	0.18095457458496095	0		-0.18494772338867188	-3.1808291015625	0		1.9200960693359375	-1.1291519775390626	0		3.25992822265625	-0.06191103744506836	0		4.627900390625	0.32757122802734373	0		6.02387939453125	0.4689122314453125	0		-0.1945425262451172	5.9094833984375	0		
-0.004869017124176025	-0.0017891080379486084	0		0.6679070434570312	-2.636772216796875	0		-0.9645581665039062	0.18122386169433594	0		-0.1692696228027344	-3.205674072265625	0		1.90086474609375	-1.1407359619140625	0		3.241803466796875	-0.05849930191040039	0		4.5870009765625	0.36215313720703124	0		6.0327236328125	0.4681341552734375	0		-0.1786326904296875	5.9196376953125	0		
